<?xml version="1.0" encoding="utf-8"?>
<!-- Generator: Adobe Illustrator 21.0.0, SVG Export Plug-In . SVG Version: 6.00 Build 0)  -->
<svg version="1.1" id="Capa_1" xmlns="http://www.w3.org/2000/svg" xmlns:xlink="http://www.w3.org/1999/xlink" x="0px" y="0px"
	 viewBox="0 0 512 512" style="enable-background:new 0 0 512 512;" xml:space="preserve">
<style type="text/css">
	.st0{fill:#6AAF50;}
	.st1{display:none;fill:#4D8538;}
	.st2{display:none;}
	.st3{display:inline;fill:#FFFFFF;}
</style>
<circle class="st0" cx="256" cy="256" r="256"/>
<path class="st1" d="M327.8,126.6H261V263L251,252.9h-66.8v73.8l-10.1-10.1h-66.8v45.5l-0.2,0.2l13.8,13.8h-13.6v9.4h0.1l0,0
	l125.5,125.5c7.6,0.7,15.4,1.1,23.2,1.1c126.4,0,231.4-91.6,252.2-212L404.7,196.5h-7L327.8,126.6z M124.7,385.4h1.9"/>
<g class="st2">
	<rect x="337.9" y="196.5" class="st3" width="66.8" height="166"/>
	<rect x="261" y="126.6" class="st3" width="66.8" height="235.9"/>
	<rect x="184.2" y="252.9" class="st3" width="66.8" height="109.6"/>
	<rect x="107.3" y="316.5" class="st3" width="66.8" height="45.9"/>
	<rect x="107.3" y="376" class="st3" width="297.5" height="9.4"/>
</g>
</svg>
